<?xml version="1.0" encoding="UTF-8" standalone="no"?>
<!-- Created with Inkscape (http://www.inkscape.org/) -->

<svg
   xmlns:dc="http://purl.org/dc/elements/1.1/"
   xmlns:cc="http://creativecommons.org/ns#"
   xmlns:rdf="http://www.w3.org/1999/02/22-rdf-syntax-ns#"
   xmlns:svg="http://www.w3.org/2000/svg"
   xmlns="http://www.w3.org/2000/svg"
   xmlns:sodipodi="http://sodipodi.sourceforge.net/DTD/sodipodi-0.dtd"
   xmlns:inkscape="http://www.inkscape.org/namespaces/inkscape"
   width="210mm"
   height="297mm"
   viewBox="0 0 210 297"
   version="1.1"
   id="svg8"
   inkscape:version="0.92.2 (5c3e80d, 2017-08-06)"
   sodipodi:docname="Zeichnung.svg">
  <defs
     id="defs2" />
  <sodipodi:namedview
     id="base"
     pagecolor="#ffffff"
     bordercolor="#666666"
     borderopacity="1.0"
     inkscape:pageopacity="0.0"
     inkscape:pageshadow="2"
     inkscape:zoom="0.7"
     inkscape:cx="299.51187"
     inkscape:cy="711.89766"
     inkscape:document-units="mm"
     inkscape:current-layer="layer1"
     showgrid="false"
     inkscape:window-width="1366"
     inkscape:window-height="706"
     inkscape:window-x="-8"
     inkscape:window-y="-8"
     inkscape:window-maximized="1" />
  <metadata
     id="metadata5">
    <rdf:RDF>
      <cc:Work
         rdf:about="">
        <dc:format>image/svg+xml</dc:format>
        <dc:type
           rdf:resource="http://purl.org/dc/dcmitype/StillImage" />
        <dc:title></dc:title>
      </cc:Work>
    </rdf:RDF>
  </metadata>
  <g
     inkscape:label="Ebene 1"
     inkscape:groupmode="layer"
     id="layer1">
    <g
       id="g21"
       transform="translate(177.66392,-26.806071)">
      <path
         style="fill:#fcfcfc;stroke-width:0.21166667"
         d="M -181.26225,148.83333 V 80.253334 h 121.92 121.92 v 68.579996 68.58 h -121.92 -121.92 z"
         id="path25"
         inkscape:connector-curvature="0" />
      <path
         style="fill:#000000;stroke-width:0.21166667"
         d="m -138.2837,192.95933 c -1.44959,-0.16681 -2.94036,-0.4479 -3.31282,-0.62464 -0.37247,-0.17675 -1.01706,-0.32136 -1.43243,-0.32136 -0.82711,0 -3.77043,-0.89637 -4.48874,-1.36703 -0.24805,-0.16253 -0.82212,-0.36165 -1.2757,-0.44249 -0.45358,-0.0808 -1.1118,-0.31979 -1.46271,-0.53099 -0.96833,-0.58281 -3.72535,-1.64542 -4.95133,-1.90834 -0.59978,-0.12863 -1.34967,-0.45011 -1.66642,-0.7144 -0.31674,-0.26428 -0.90927,-0.64966 -1.31673,-0.85639 -2.16323,-1.09755 -5.81468,-3.82093 -8.255,-6.15688 -0.98954,-0.94722 -2.02123,-1.83838 -2.29265,-1.98035 -0.27141,-0.14197 -0.60478,-0.51426 -0.74083,-0.82732 -0.27716,-0.63777 -0.81188,-1.42231 -1.67611,-2.45917 -0.50347,-0.60405 -0.58208,-0.88388 -0.58208,-2.07214 0,-1.43731 0.66966,-3.87919 1.47685,-5.38522 0.23548,-0.43936 0.42815,-0.87807 0.42815,-0.9749 0,-0.38181 2.23511,-2.68759 2.79411,-2.88246 0.3268,-0.11392 0.78876,-0.53693 1.0266,-0.94003 0.26834,-0.45481 0.7993,-0.90536 1.39929,-1.18739 0.53178,-0.24996 1.73069,-0.97759 2.66424,-1.61693 0.93356,-0.63935 2.1847,-1.40638 2.78032,-1.70452 0.59562,-0.29814 1.39409,-0.77559 1.77438,-1.06102 0.3803,-0.28542 1.1423,-0.71454 1.69334,-0.9536 0.55104,-0.23906 1.24001,-0.65051 1.53105,-0.91433 0.30804,-0.27922 0.94703,-0.5393 1.5291,-0.62236 0.68313,-0.0975 1.26686,-0.36571 1.84246,-0.84661 0.46339,-0.38716 1.77555,-1.15956 2.91591,-1.71645 1.14035,-0.55689 2.58659,-1.39068 3.21387,-1.85287 0.62727,-0.4622 1.5986,-1.0078 2.15851,-1.21245 0.55991,-0.20465 1.29887,-0.57209 1.64214,-0.81652 0.65907,-0.46929 0.7165,-0.67362 1.31552,-4.68017 0.24403,-1.63214 1.70702,-5.57497 3.08086,-8.30305 1.31374,-2.60874 5.69067,-8.76766 6.91974,-9.73697 0.48292,-0.38087 1.45172,-1.20309 2.15288,-1.82717 0.70117,-0.62408 2.98935,-2.29898 5.08485,-3.722 2.90632,-1.97363 4.86428,-3.10284 8.255,-4.76086 2.44475,-1.19545 5.06595,-2.38871 5.82489,-2.65169 0.75894,-0.26298 1.80476,-0.69489 2.32405,-0.95981 0.96024,-0.48988 3.40089,-1.28995 6.456057,-2.11635 0.931333,-0.25192 2.264833,-0.66464 2.963333,-0.91715 1.242443,-0.44915 1.511129,-0.45909 12.3825,-0.45784 11.277257,0.001 15.091071,0.15733 15.663333,0.64082 0.513214,0.4336 1.906607,0.9489 3.444223,1.27372 0.788366,0.16655 1.791862,0.48569 2.229993,0.70921 0.438133,0.22352 1.770871,0.74552 2.961638,1.16 2.872969,1.00001 6.703388,2.8872 8.97461,4.42164 1.869651,1.26315 4.204756,3.53511 5.114459,4.97618 0.275459,0.43635 0.653538,0.9201 0.840175,1.075 0.186637,0.15489 0.680502,0.89168 1.097481,1.6373 0.416977,0.74563 0.881998,1.35569 1.033382,1.35569 0.342348,0 2.905805,1.34439 4.043206,2.12044 0.49864,0.34022 1.297944,0.6396 1.944518,0.7283 0.691987,0.0949 1.513624,0.41672 2.2225,0.87041 0.618558,0.39587 1.670634,0.97412 2.33795,1.285 0.667315,0.31087 1.269377,0.74191 1.337917,0.95786 0.06854,0.21594 0.402918,0.53655 0.743064,0.71244 1.036083,0.53578 3.899025,3.27538 5.412042,5.17888 0.786547,0.98954 1.887832,2.31824 2.447298,2.95267 0.559467,0.63443 1.017211,1.25901 1.017211,1.38797 0,0.12896 0.333081,0.89575 0.740181,1.704 0.407099,0.80824 0.740474,1.62891 0.740834,1.8237 4.23e-4,0.1948 0.262589,0.66518 0.582735,1.0453 0.581414,0.69031 0.58216,0.6955 0.648881,4.50793 0.07217,4.12351 -0.140864,5.61479 -1.136633,7.95676 -0.272241,0.6403 -0.600208,1.51374 -0.728817,1.94099 -0.128611,0.42725 -0.386433,0.90346 -0.572941,1.05825 -0.186508,0.15479 -0.444879,0.53299 -0.574157,0.84045 -0.29675,0.70576 -3.556085,3.67811 -4.651997,4.24239 -0.453428,0.23346 -1.453553,0.88035 -2.2225,1.43753 -1.654632,1.19893 -4.885057,2.84858 -7.905096,4.03681 -1.194228,0.46987 -2.695198,1.08905 -3.33549,1.37596 -0.640292,0.28691 -2.164292,0.75736 -3.386667,1.04546 -1.222375,0.2881 -2.555875,0.66563 -2.963333,0.83896 -0.661496,0.28141 -4.65433,0.94101 -9.730689,1.60748 -0.986255,0.12949 -1.873271,0.28492 -1.971148,0.34541 -0.09788,0.0605 -2.734566,0.17286 -5.85931,0.2497 -5.2731,0.12967 -5.714001,0.17001 -6.135755,0.56141 -1.140668,1.05857 -13.821171,7.0892 -14.906329,7.0892 -0.314581,0 -0.957273,0.19657 -1.428202,0.43682 -0.470929,0.24025 -2.443571,0.99116 -4.38365,1.66869 -1.94008,0.67753 -4.384667,1.5672 -5.432417,1.97704 -4.26085,1.66672 -9.33825,3.00305 -12.59417,3.31468 -1.33879,0.12814 -3.10091,0.33303 -3.91583,0.45531 -0.82522,0.12383 -6.31125,0.25764 -12.3825,0.30203 -8.51463,0.0623 -11.47777,0.0133 -13.53645,-0.22357 z m 24.75478,-0.71963 c 0.64029,-0.1131 2.59292,-0.36298 4.33917,-0.55529 3.53009,-0.38875 7.70663,-1.41467 11.7475,-2.88563 0.640292,-0.23308 3.021542,-1.08218 5.291667,-1.88689 2.270125,-0.80471 4.6392,-1.70525 5.264609,-2.00122 0.625411,-0.29595 1.5912,-0.62422 2.146196,-0.72947 1.382035,-0.2621 3.850901,-1.38584 11.850861,-5.39407 1.661776,-0.8326 1.937347,-1.03714 1.5875,-1.17827 -0.232833,-0.0939 -5.852583,-0.18024 -12.488333,-0.19182 -11.042502,-0.0193 -13.586797,-0.10232 -19.57917,-0.63906 -2.15774,-0.19327 -5.24346,-0.81609 -6.74703,-1.36181 -0.5094,-0.1849 -1.02729,-0.33617 -1.15085,-0.33617 -0.34217,0 0.92571,1.24593 1.4264,1.40171 0.24144,0.0751 1.12171,0.59359 1.95616,1.15216 0.83445,0.55858 1.81076,1.16741 2.16958,1.35296 0.7112,0.36777 0.87998,0.9615 0.27333,0.9615 -0.20849,0 -1.13718,-0.48292 -2.06375,-1.07316 -0.92657,-0.59025 -2.11329,-1.29433 -2.63717,-1.56463 -0.52387,-0.27029 -1.13395,-0.69225 -1.35572,-0.93766 -0.22177,-0.24542 -0.60452,-0.44621 -0.85055,-0.44621 -0.24603,0 -0.92183,-0.39357 -1.50178,-0.87459 -1.12785,-0.93548 -2.08714,-1.40936 -4.44112,-2.19391 -2.3875,-0.79571 -5.39501,-2.08782 -6.93825,-2.98086 -2.17138,-1.25652 -4.43084,-2.64685 -5.70112,-3.50812 -1.08955,-0.73873 -3.27307,-3.08478 -4.39979,-4.72729 -0.29104,-0.42427 -0.97761,-1.31085 -1.52571,-1.97018 -1.29419,-1.55682 -2.6752,-4.07727 -3.03918,-5.54672 -0.1586,-0.64029 -0.29176,-2.03961 -0.29591,-3.10959 -0.004,-1.06998 -0.0971,-2.00075 -0.20648,-2.06838 -0.10942,-0.0676 -0.51423,0.0693 -0.89958,0.30422 -0.38536,0.23494 -0.85685,0.42753 -1.04777,0.42796 -0.19093,4.2e-4 -0.9053,0.40986 -1.5875,0.90982 -0.68221,0.49997 -2.15357,1.35181 -3.2697,1.89298 -1.11614,0.54117 -2.42797,1.31699 -2.91519,1.72405 -0.92198,0.77029 -1.11184,0.85532 -2.38963,1.07023 -0.42487,0.0714 -0.90112,0.28567 -1.05834,0.47604 -0.15721,0.19036 -0.80972,0.57711 -1.45001,0.85943 -0.6403,0.28232 -1.44992,0.72966 -1.79917,0.99408 -0.34925,0.26442 -1.15887,0.74488 -1.79917,1.06769 -0.64029,0.3228 -1.97563,1.1413 -2.96741,1.81888 -0.99179,0.67758 -2.10438,1.35858 -2.47243,1.51333 -0.36806,0.15475 -1.06488,0.7309 -1.54849,1.28032 -0.48362,0.54942 -0.99592,0.99894 -1.13845,0.99894 -0.44186,0 -2.13231,2.1523 -2.84267,3.61934 -0.82573,1.70526 -1.59218,4.53373 -1.43777,5.30582 0.0625,0.31252 0.30869,0.78964 0.54708,1.06028 0.23838,0.27063 0.66107,0.74859 0.9393,1.06212 0.27824,0.31353 0.58706,0.80004 0.68628,1.08114 0.18531,0.52499 3.5862,3.79516 5.47206,5.26173 0.9301,0.7233 3.30453,2.32819 6.5034,4.39568 0.55004,0.3555 1.4506,0.74733 2.00125,0.87074 1.13824,0.25508 3.31627,1.08312 4.72452,1.79616 0.52388,0.26526 1.38113,0.62654 1.905,0.80285 0.52387,0.1763 1.7145,0.60175 2.64583,0.94543 0.93134,0.34368 2.24783,0.69269 2.92555,0.77558 0.67771,0.0829 1.53496,0.27328 1.905,0.4231 0.37003,0.14982 2.00629,0.38891 3.63612,0.53131 1.62983,0.1424 3.01096,0.31062 3.06917,0.37384 0.17915,0.19455 19.29327,-0.13168 20.53166,-0.35042 z m 45.109246,-16.15635 c 1.080048,-0.64594 1.985625,-1.42379 2.117233,-1.81861 0.04708,-0.14125 0.649686,-0.40412 1.339116,-0.58416 0.864294,-0.2257 1.586533,-0.6073 2.326043,-1.229 0.589892,-0.49592 1.501157,-1.19498 2.025032,-1.55346 0.523875,-0.35848 1.405884,-1.11203 1.960019,-1.67454 3.262329,-3.31164 4.271031,-4.439 5.123937,-5.72669 0.522546,-0.78891 1.576396,-2.29164 2.341891,-3.33939 0.765494,-1.04775 1.51881,-2.2004 1.674033,-2.56145 0.155224,-0.36105 0.557202,-0.85225 0.893287,-1.09157 0.353003,-0.25136 1.048251,-1.27027 1.646296,-2.41271 0.56938,-1.08768 1.292915,-2.3586 1.607861,-2.82427 0.314943,-0.46567 0.64426,-1.18004 0.731816,-1.5875 0.08755,-0.40746 0.32704,-1.07421 0.532194,-1.48167 0.205151,-0.40745 0.490148,-1.31233 0.633325,-2.01083 0.143178,-0.6985 0.389395,-1.52154 0.54715,-1.82897 0.394828,-0.76945 1.187571,-7.11391 1.299786,-10.40244 l 0.09235,-2.70641 -0.883224,-2.37704 c -0.48577,-1.30737 -0.993794,-2.52825 -1.128938,-2.71307 -0.368698,-0.50422 -1.814979,-1.17497 -2.890118,-1.34037 -0.523875,-0.0806 -1.571625,-0.37537 -2.328334,-0.65506 -2.59774,-0.96019 -6.900416,-1.81761 -10.054166,-2.00355 -1.629834,-0.0961 -3.391959,-0.2796 -3.915834,-0.4078 -0.526681,-0.12889 -4.027847,-0.29035 -7.831666,-0.36118 -5.844619,-0.10882 -7.152221,-0.0763 -8.694829,0.21599 -0.998614,0.18924 -2.427364,0.34556 -3.175,0.34738 -1.84839,0.005 -5.08661,0.70138 -6.756838,1.45408 -0.756708,0.34102 -2.169353,0.86736 -3.139207,1.16964 -1.810853,0.5644 -7.181154,3.30742 -8.502461,4.34285 -0.40745,0.3193 -0.99528,0.64376 -1.30627,0.72102 -0.31099,0.0773 -0.97774,0.47155 -1.48166,0.8762 -0.50393,0.40465 -1.58298,1.08446 -2.3979,1.5107 -0.81492,0.42623 -2.00554,1.17746 -2.64583,1.66939 -1.3878,1.06623 -6.44618,4.37476 -7.5683,4.95019 -0.4359,0.22353 -1.02817,0.65883 -1.31616,0.96733 -0.44277,0.47431 -0.47545,0.59291 -0.21166,0.76811 0.17157,0.11396 0.69295,0.14756 1.15862,0.0747 0.46566,-0.0729 3.71426,-0.17622 7.21911,-0.22962 5.34206,-0.0814 6.59128,-0.0428 7.72583,0.23856 3.06604,0.7604 4.201924,1.01762 6.115888,1.38489 1.105958,0.21223 2.573306,0.58375 3.260774,0.82561 0.687466,0.24185 1.402598,0.43973 1.589182,0.43973 0.186585,0 0.767112,0.22452 1.290062,0.49893 0.522948,0.27441 1.229049,0.56607 1.569111,0.64812 0.340061,0.0821 0.85297,0.33379 1.139795,0.55941 0.286825,0.22562 0.620217,0.41021 0.740871,0.41021 0.475177,0 0.993538,0.7259 0.993538,1.39133 0,1.05598 -0.191704,1.36034 -0.85682,1.36034 -0.780385,0 -0.929972,-0.27315 -0.408189,-0.74535 0.576519,-0.52174 0.523717,-0.91151 -0.163741,-1.20868 -0.320145,-0.13839 -0.809242,-0.4221 -1.086878,-0.63046 -0.277637,-0.20837 -0.660049,-0.37885 -0.849802,-0.37885 -0.189753,0 -0.722748,-0.20246 -1.184436,-0.4499 -0.461685,-0.24745 -1.412775,-0.58784 -2.113532,-0.75641 -0.700756,-0.16858 -1.559852,-0.43455 -1.909102,-0.59106 -0.34925,-0.1565 -1.68275,-0.48838 -2.963333,-0.7375 -2.581434,-0.5022 -4.191008,-0.85589 -6.231918,-1.36942 -1.11986,-0.28177 -2.27377,-0.32931 -6.45583,-0.26598 -2.80074,0.0424 -6.23525,0.18403 -7.63225,0.31469 l -2.54,0.23756 -1.31869,1.42418 c -0.85495,0.92333 -1.43423,1.77203 -1.64724,2.41332 -0.18069,0.54403 -0.62592,1.45539 -0.9894,2.02525 -0.36347,0.56986 -0.89347,1.51236 -1.17778,2.09444 -0.28431,0.58208 -0.64349,1.29646 -0.79818,1.5875 -0.36598,0.6886 -0.81573,5.41077 -0.68462,7.18833 0.0789,1.06938 0.25237,1.62486 0.76289,2.4425 0.36344,0.58209 0.82416,1.39171 1.02381,1.79917 0.19966,0.40746 0.70707,1.16946 1.12758,1.69333 0.4205,0.52388 1.08809,1.524 1.48351,2.2225 0.39542,0.6985 1.29439,1.89411 1.9977,2.6569 0.70331,0.76279 1.47895,1.62834 1.72362,1.92344 0.95836,1.15583 3.2836,2.46147 5.17217,2.90421 0.99386,0.23299 2.27974,0.60909 2.8575,0.83577 0.57775,0.22668 1.47909,0.48136 2.00296,0.56595 0.52388,0.0846 1.7145,0.32519 2.64584,0.53466 0.93133,0.20948 2.83633,0.44989 4.23333,0.53425 1.396998,0.0844 3.349623,0.22271 4.339165,0.30745 0.989541,0.0847 7.514166,0.14393 14.499166,0.13155 l 12.7,-0.0225 z m -4.128512,-4.27874 c -0.452891,-0.16141 -1.310141,-0.62053 -1.905,-1.02028 -0.59486,-0.39974 -1.629251,-1.08239 -2.298647,-1.51698 -0.669396,-0.4346 -1.217084,-0.85906 -1.217084,-0.94325 0,-0.15222 -3.072168,-3.31796 -4.042526,-4.16565 -0.685845,-0.59914 -2.087664,-2.1113 -4.199558,-4.53012 -0.965623,-1.10595 -1.935095,-2.20133 -2.154379,-2.43416 -1.105057,-1.17334 -2.93805,-3.64138 -2.938278,-3.95626 -4.24e-4,-0.61139 0.468416,-0.69268 0.87664,-0.152 0.910305,1.20567 1.371624,1.78004 1.768935,2.20244 0.232833,0.24754 0.6993,0.8506 1.036595,1.34014 0.337293,0.48955 0.908793,1.21 1.27,1.60101 0.361205,0.39101 1.513988,1.64436 2.561738,2.78522 1.04775,1.14086 2.128194,2.27195 2.400988,2.51354 0.272794,0.24158 1.558669,1.48923 2.8575,2.77254 1.298831,1.28331 2.7304,2.52156 3.181265,2.75167 0.450863,0.2301 1.104377,0.68077 1.452256,1.0015 0.910215,0.83916 3.274545,1.51358 4.788173,1.36581 1.192941,-0.11646 3.200019,-0.94355 3.885647,-1.60123 0.199374,-0.19124 0.712807,-0.63347 1.140964,-0.98272 3.116984,-2.54254 6.429906,-6.42502 6.959257,-8.1557 0.08792,-0.28744 0.312071,-0.69577 0.498111,-0.90739 0.355435,-0.40431 0.964743,-1.37296 1.755151,-2.79024 0.534659,-0.9587 2.631723,-6.88534 2.977094,-8.41375 0.124955,-0.55298 0.299493,-1.00542 0.387862,-1.00542 0.294403,0 0.442732,-1.09126 0.189761,-1.39608 -0.135682,-0.16348 -0.518454,-0.29725 -0.850601,-0.29725 -0.645478,0 -4.028608,1.66819 -4.755403,2.34484 -0.240337,0.22375 -0.510521,0.40683 -0.600408,0.40683 -0.203418,0 -3.330117,2.10821 -3.619284,2.44034 -0.116416,0.13371 -0.592666,0.41731 -1.058333,0.6302 -0.465667,0.2129 -1.015604,0.5308 -1.222085,0.70644 -0.252548,0.21483 -0.445328,0.24944 -0.589022,0.10574 -0.371782,-0.37178 0.03186,-0.92235 1.057066,-1.44186 0.545765,-0.27656 1.117041,-0.65315 1.269504,-0.83685 0.152464,-0.18371 0.403685,-0.33401 0.558269,-0.33401 0.154587,0 0.357236,-0.12511 0.450334,-0.27802 0.190718,-0.31324 2.653679,-1.83865 2.968733,-1.83865 0.112249,0 0.383605,-0.19836 0.603015,-0.44081 0.219409,-0.24244 0.686608,-0.57929 1.038223,-0.74855 0.351612,-0.16926 1.067921,-0.53677 1.591796,-0.8167 0.74425,-0.39768 1.288015,-0.51168 2.487084,-0.52144 l 1.534583,-0.0125 v 1.25285 c 0,0.68906 -0.132304,1.5225 -0.294009,1.85208 -0.161705,0.32958 -0.409097,0.93261 -0.549758,1.34007 -0.140663,0.40746 -0.42361,1.21708 -0.628773,1.79917 -0.205162,0.58208 -0.536829,1.62983 -0.737034,2.32833 -0.457735,1.597 -2.049532,4.93243 -2.752847,5.76827 -0.292875,0.34807 -0.724605,1.04997 -0.959398,1.55979 -0.724415,1.57295 -2.283029,3.84956 -3.229892,4.71777 -0.49635,0.45512 -1.664456,1.55117 -2.595789,2.43567 -1.961276,1.86264 -2.849478,2.55189 -4.24401,3.29337 -0.888227,0.47228 -1.25306,0.53322 -3.142932,0.52501 -1.261811,-0.005 -2.475529,-0.12957 -2.961494,-0.30277 z m -0.764064,-11.13186 c 0,-0.12407 0.119063,-0.43363 0.264583,-0.68791 0.192511,-0.3364 0.307074,-2.85516 0.420569,-9.24651 0.186159,-10.48322 0.395053,-14.96448 0.690681,-14.81666 0.131627,0.0658 0.191262,1.4265 0.157709,3.59833 -0.02968,1.92088 -0.104261,7.3461 -0.165744,12.05606 -0.09789,7.49869 -0.154476,8.61074 -0.455098,8.94292 -0.378163,0.41787 -0.9127,0.50792 -0.9127,0.15377 z m 24.949396,-20.78233 c -0.175919,-0.14552 -0.49348,-0.54394 -0.705695,-0.88537 -0.339674,-0.5465 -0.371435,-0.94481 -0.265413,-3.32866 0.06624,-1.48932 0.180715,-2.80541 0.254396,-2.92463 0.07368,-0.11922 0.871279,-0.21676 1.772439,-0.21676 1.424813,0 1.754404,0.0752 2.527508,0.57646 l 0.889036,0.57646 v 1.34366 c 0,0.91214 -0.101967,1.44562 -0.3175,1.66116 -0.200908,0.2009 -0.3175,0.72216 -0.3175,1.41945 0,1.70294 -0.347422,2.04281 -2.088213,2.04281 -0.83167,0 -1.562936,-0.11062 -1.749058,-0.26458 z m 2.878156,-0.8083 c 0.120055,-0.12006 0.218281,-0.76121 0.218281,-1.42479 0,-1.06173 -0.09584,-1.33735 -0.798701,-2.297 -0.711009,-0.97078 -1.345787,-1.49223 -1.558086,-1.27993 -0.04053,0.0405 0.260953,0.73334 0.669969,1.53956 0.871027,1.71693 0.964688,3.15921 0.205152,3.15921 -0.344445,0 -0.411948,-0.12075 -0.36223,-0.64794 0.03361,-0.35637 -0.08487,-0.92787 -0.263279,-1.27 -0.178412,-0.34214 -0.32497,-0.72636 -0.325687,-0.85384 -6.35e-4,-0.12748 -0.179699,-0.39322 -0.397737,-0.59055 -0.375751,-0.34004 -0.403208,-0.33347 -0.526277,0.12595 -0.373653,1.39487 0.254939,3.3751 1.196886,3.77051 0.531514,0.22311 1.616602,0.0939 1.941709,-0.23118 z m 0.828504,-4.12471 c 0.07485,-0.19505 -0.08454,-0.54014 -0.391067,-0.84666 -0.7883,-0.7883 -1.046029,-0.62231 -0.511222,0.32925 0.515605,0.9174 0.70674,1.027 0.902289,0.51741 z m -34.159914,-5.35974 c -2.024622,-0.7078 -2.116142,-0.77333 -2.116142,-1.51528 0,-1.1194 0.66077,-1.33293 3.776631,-1.22042 3.524798,0.12728 4.340318,0.46275 4.438387,1.82576 0.100341,1.39456 -0.112873,1.52319 -2.473018,1.49202 -1.605547,-0.0212 -2.374703,-0.14469 -3.625858,-0.58208 z m 4.882773,-0.24512 c 1.06797,-0.57156 0.03626,-1.4266 -1.942679,-1.61002 l -1.352069,-0.12531 -0.239027,0.64073 c -0.230427,0.61767 -0.211389,0.65209 0.529167,0.95665 0.912205,0.37515 2.431091,0.44489 3.004608,0.13795 z m 13.003585,47.13307 c 2.871694,-0.10025 13.583615,-1.6888 15.028333,-2.22867 0.582084,-0.21752 2.010834,-0.63312 3.175,-0.92357 1.164167,-0.29044 2.735792,-0.78444 3.4925,-1.09777 0.756709,-0.31334 1.890366,-0.77784 2.519238,-1.03224 2.494773,-1.0092 6.633307,-3.13982 7.998388,-4.11777 0.792848,-0.568 1.870166,-1.27949 2.394041,-1.58111 1.122536,-0.64627 4.021667,-3.39875 4.021667,-3.81822 0,-0.15995 0.238125,-0.51452 0.529166,-0.78794 0.291042,-0.27342 0.531428,-0.59958 0.534192,-0.72481 0.0028,-0.12523 0.246575,-0.79919 0.541805,-1.49769 1.022259,-2.41861 1.565455,-5.07513 1.558115,-7.62 -0.0083,-2.8772 -0.197877,-3.90216 -0.912487,-4.93334 -0.306603,-0.44243 -0.557458,-0.95174 -0.557458,-1.1318 0,-0.18007 -0.404812,-1.12865 -0.899583,-2.10796 -1.592197,-3.15147 -6.965478,-9.28151 -9.086277,-10.36596 -0.428098,-0.2189 -0.834741,-0.57565 -0.903651,-0.79276 -0.118864,-0.37451 -0.935899,-0.88234 -1.419572,-0.88234 -0.12329,0 -0.571246,-0.2727 -0.995458,-0.606 -1.122494,-0.88193 -1.912125,-1.23936 -3.102413,-1.40429 -0.616308,-0.0854 -1.407865,-0.39075 -1.902213,-0.73379 -0.845094,-0.58643 -3.4925,-1.9848 -3.4925,-1.84476 0,0.2248 0.935946,2.87654 1.186364,3.36124 0.351767,0.68086 0.419043,6.92249 0.09234,8.56687 -0.111631,0.56186 -0.304178,2.08564 -0.427884,3.38619 -0.1312,1.37933 -0.39065,2.74641 -0.622652,3.28084 -0.218751,0.50391 -0.465491,1.33456 -0.548309,1.84591 -0.08282,0.51134 -0.377112,1.41621 -0.653983,2.01083 -0.276872,0.59462 -0.504336,1.27693 -0.505472,1.51625 -0.0011,0.23932 -0.246251,0.7632 -0.544697,1.16417 -0.298444,0.40097 -0.985732,1.58629 -1.527302,2.63404 -0.541572,1.04775 -1.373247,2.33362 -1.848165,2.8575 -0.474919,0.52387 -0.979693,1.19062 -1.121717,1.48166 -0.142027,0.29105 -0.922966,1.43405 -1.735419,2.54 -0.812455,1.10596 -1.821904,2.52957 -2.24322,3.16357 -1.159174,1.74434 -5.264745,6.01614 -7.174048,7.46451 -0.931334,0.70649 -2.074334,1.59607 -2.54,1.97684 -0.465667,0.38077 -1.223135,0.76265 -1.683263,0.84863 -1.010088,0.18873 -3.130152,2.00631 -2.569569,2.20295 0.320135,0.11229 0.960429,0.10484 5.946165,-0.0692 z m -50.85292,-1.5458 c -0.14552,-0.0587 -0.38364,-0.0587 -0.52916,0 -0.14552,0.0587 -0.0265,0.10676 0.26458,0.10676 0.29104,0 0.4101,-0.048 0.26458,-0.10676 z m -6.61458,-3.22139 c 0,-0.10261 -0.66409,-0.93605 -1.47575,-1.85208 -0.81167,-0.91603 -1.87527,-2.33227 -2.36356,-3.14718 -0.4883,-0.81492 -1.25296,-1.89989 -1.69925,-2.41105 -0.44629,-0.51116 -0.81144,-1.04601 -0.81144,-1.18854 0,-0.14254 -0.20095,-0.51462 -0.44655,-0.82685 -0.2456,-0.31223 -0.67382,-1.01564 -0.95161,-1.56313 -0.4646,-0.91568 -0.50514,-1.24655 -0.50595,-4.12989 -0.001,-3.72019 0.29728,-5.99892 0.86617,-6.61585 0.22162,-0.24034 0.40294,-0.52808 0.40294,-0.63943 0,-0.11134 0.42821,-0.93396 0.95157,-1.82802 0.52337,-0.89406 1.14347,-2.13845 1.378,-2.76529 0.23453,-0.62685 0.66358,-1.36252 0.95343,-1.63482 0.89925,-0.84481 0.70615,-1.10819 -0.69008,-0.94121 -0.6694,0.08 -1.64571,0.31827 -2.16959,0.52938 -0.52387,0.2111 -1.60949,0.49107 -2.41249,0.62215 -0.80299,0.13107 -1.82314,0.42358 -2.26698,0.65002 -0.44385,0.22643 -0.98978,0.41169 -1.21318,0.41169 -0.41574,0 -2.47147,0.83833 -3.42068,1.39496 -1.32555,0.77731 -2.93384,1.54316 -3.7596,1.79027 -0.49615,0.14848 -0.99624,0.3834 -1.11131,0.52205 -0.11507,0.13865 -0.2687,0.95667 -0.34139,1.81783 -0.25607,3.03345 0.96495,6.43605 3.28498,9.15424 0.5116,0.5994 1.15353,1.4232 1.4265,1.83065 1.05132,1.56929 1.2512,1.83059 2.18462,2.85585 1.22229,1.34255 3.56148,3.0297 6.20777,4.47739 1.1389,0.62306 2.2819,1.27116 2.54,1.44024 0.25809,0.16908 1.08839,0.54228 1.8451,0.82933 0.75671,0.28705 1.80446,0.71825 2.32833,0.95823 1.06486,0.48781 1.27,0.52965 1.27,0.25906 z m -18.20663,-25.66035 c 0.75489,-0.34959 1.51689,-0.76263 1.69333,-0.91788 0.38062,-0.33491 3.49796,-1.59853 3.94356,-1.59853 0.17047,0 0.66333,-0.17984 1.09526,-0.39964 0.43192,-0.2198 1.48502,-0.50783 2.34022,-0.64007 0.85519,-0.13224 1.83123,-0.38333 2.16897,-0.55798 0.33773,-0.17465 1.33731,-0.40925 2.22127,-0.52132 2.53318,-0.32118 3.13859,-0.58382 4.83208,-2.09626 0.85842,-0.76664 2.73186,-2.10827 4.1632,-2.9814 1.43134,-0.87312 3.46541,-2.21837 4.52017,-2.98942 1.05475,-0.77106 2.44161,-1.66338 3.0819,-1.98293 0.64029,-0.31955 1.56628,-0.90728 2.05774,-1.30607 0.49146,-0.39878 1.34871,-0.92281 1.905,-1.1645 0.55629,-0.2417 1.20193,-0.60545 1.43476,-0.80834 1.269451,-1.1062 8.030163,-4.38016 9.842503,-4.76636 0.407459,-0.0868 1.217084,-0.40031 1.799167,-0.69662 2.741088,-1.39536 7.148953,-1.83863 18.309167,-1.84125 6.74658,-0.001 8.730295,0.0596 9.313333,0.28708 0.408845,0.15953 2.116216,0.36061 3.81,0.4487 3.298548,0.17154 6.83688,0.83548 9.419167,1.76743 0.814916,0.29411 1.862666,0.59726 2.328333,0.67366 0.465667,0.0764 1.013354,0.18465 1.217083,0.24053 0.603134,0.16546 0.439528,-0.48358 -0.341573,-1.35505 -0.391591,-0.4369 -0.863028,-1.08988 -1.047633,-1.45108 -0.48583,-0.95056 -2.780248,-3.23483 -4.398114,-4.37867 -1.483995,-1.04919 -6.714917,-3.73368 -8.129763,-4.17216 -0.465667,-0.14432 -1.859475,-0.67319 -3.097352,-1.17528 -1.237878,-0.50208 -2.619003,-0.97578 -3.069167,-1.05267 -1.063151,-0.18159 -2.907057,-0.84949 -3.601614,-1.30458 -0.908797,-0.59547 -4.978711,-0.80665 -15.526034,-0.80564 l -9.8425,8.5e-4 -2.8575,0.8801 c -1.571625,0.48406 -3.905253,1.18752 -5.185833,1.56324 -1.28058,0.37572 -2.70751,0.87346 -3.17094,1.10609 -0.46344,0.23263 -1.46356,0.63702 -2.2225,0.89865 -0.75894,0.26163 -3.47539,1.50273 -6.03656,2.75802 -7.59636,3.72313 -14.6245,8.78567 -17.30965,12.46856 -4.17839,5.73098 -5.26624,7.68785 -7.25658,13.05344 -0.28626,0.77172 -0.9396,4.44646 -0.9396,5.28484 0,0.38223 0.0861,0.42781 0.58208,0.30828 0.32015,-0.0771 1.19972,-0.42629 1.95462,-0.77587 z"
         id="path23"
         inkscape:connector-curvature="0" />
    </g>
  </g>
</svg>
